<?xml version="1.0" encoding="UTF-8"?>
<svg width="34px" height="32px" viewBox="0 0 34 32" version="1.1" xmlns="http://www.w3.org/2000/svg" xmlns:xlink="http://www.w3.org/1999/xlink">
    <!-- Generator: Sketch 46.2 (44496) - http://www.bohemiancoding.com/sketch -->
    <title>Shape</title>
    <desc>Created with Sketch.</desc>
    <defs></defs>
    <g id="Client-Onboarding" stroke="none" stroke-width="1" fill="none" fill-rule="evenodd">
        <g id="8-copy-6" transform="translate(-667.000000, -331.000000)" fill-rule="nonzero" fill="#FF3C27">
            <g id="Group-3" transform="translate(369.000000, 331.000000)">
                <path d="M331.029529,22.1799308 L320.374894,3.19650337 C319.269174,1.22454926 317.208562,0 314.996415,0 C312.784975,0 310.723656,1.22418503 309.617228,3.19541067 L298.829821,22.4155891 C297.723393,24.3857221 297.723393,26.8337279 298.829821,28.8038609 C299.936249,30.7754507 301.997568,32 304.209008,32 L325.787008,32 C325.815332,32 325.842241,31.9996358 325.840116,31.9992715 C329.236939,31.9715899 331.999999,29.1058095 331.999999,25.6106356 C332.000707,24.3908213 331.664353,23.2048807 331.029529,22.1799308 Z M325.800462,30.1792023 L325.787362,31.0897833 L325.787362,30.1792023 L304.209008,30.1792023 C302.627436,30.1792023 301.153851,29.3035877 300.362887,27.8932799 C299.571924,26.4851575 299.571924,24.7350209 300.362887,23.3265343 L311.14994,4.10599162 C311.940903,2.69677654 313.414488,1.8211619 314.996061,1.8211619 C316.577633,1.8211619 318.051218,2.69677654 318.841473,4.10672009 L329.506022,23.1087234 L329.528327,23.1458751 C329.987539,23.8812602 330.230068,24.7331998 330.230068,25.6113641 C330.230422,28.1096339 328.254785,30.1584411 325.800462,30.1792023 Z M313.01582,18.1930432 C313.085569,19.5709343 314.062766,20.1879439 315.000309,20.1879439 C315.917317,20.1879439 316.924255,19.487525 316.984798,18.18503 L317.362223,9.11782918 C317.362223,9.10471681 317.362931,9.09196868 317.362931,9.07885631 C317.362931,7.73884538 316.302885,6.64869787 314.999955,6.64869787 C313.697026,6.64869787 312.636979,7.73884538 312.636979,9.07885631 C312.636979,9.09196868 312.636979,9.10471681 312.637687,9.11782918 L313.01582,18.1930432 Z M315.000309,21.4656711 C314.275555,21.4656711 313.561422,21.7698051 313.036355,22.3037698 C312.521911,22.8337279 312.226627,23.5683846 312.226627,24.3190676 C312.226627,25.0726644 312.521911,25.8091422 313.040604,26.3423784 C313.559298,26.8701512 314.27343,27.1728283 315.000309,27.1728283 C315.729312,27.1728283 316.443445,26.8690585 316.955766,26.3427427 C317.475167,25.8138773 317.773991,25.0763067 317.773991,24.3190676 C317.773991,23.5651065 317.475875,22.8286287 316.958598,22.3030413 C316.441321,21.7708978 315.727188,21.4656711 315.000309,21.4656711 Z" id="Shape"></path>
            </g>
        </g>
    </g>
</svg>