<?xml version="1.0" encoding="UTF-8"?>
<svg width="14px" height="14px" viewBox="0 0 14 14" version="1.1" xmlns="http://www.w3.org/2000/svg" xmlns:xlink="http://www.w3.org/1999/xlink">
    <!-- Generator: Sketch 48.2 (47327) - http://www.bohemiancoding.com/sketch -->
    <title>Shape</title>
    <desc>Created with Sketch.</desc>
    <defs></defs>
    <g id="1-copy-5" stroke="none" stroke-width="1" fill="none" fill-rule="evenodd" transform="translate(-847.000000, -285.000000)">
        <g id="Group-6" transform="translate(847.000000, 285.000000)" fill="#556D8F" fill-rule="nonzero">
            <path d="M7,0 C3.13400675,-2.36723813e-16 4.73447626e-16,3.13400675 0,7 C-4.73447626e-16,10.8659932 3.13400675,14 7,14 C10.8659932,14 14,10.8659932 14,7 C14,5.14348457 13.2625021,3.36300718 11.9497475,2.05025253 C10.6369928,0.737497883 8.85651543,1.13678784e-16 7,0 Z M6.86,10.4874 C6.78785059,10.4757901 6.71703518,10.4570311 6.6486,10.4314 C6.38734513,10.3421644 6.21029772,10.098444 6.2062,9.8224 C6.2062,9.7776 6.2062,9.7314 6.2062,9.6824 C6.2062,8.5708 6.2062,7.45873333 6.2062,6.3462 C6.19072147,6.00875594 6.40017264,5.70171309 6.72,5.593 C7.06000013,5.4620508 7.44561517,5.57230813 7.665,5.8632 C7.75858272,5.98615734 7.80791304,6.1371081 7.805,6.2916 C7.805,6.86653333 7.805,7.44193333 7.805,8.0178 C7.805,8.5778 7.7938,9.1378 7.805,9.6978 C7.80811298,9.93662155 7.70352716,10.1641509 7.52024425,10.3172939 C7.33696134,10.470437 7.09446514,10.532914 6.86,10.4874 Z M6.9832,5.2178 C6.50903204,5.21316067 6.12818087,4.82542309 6.13203851,4.35124813 C6.13589614,3.87707317 6.52300533,3.49558331 6.997186,3.49865923 C7.47136668,3.50173515 7.8534942,3.8882149 7.8512,4.3624 C7.84888636,4.83604967 7.46385468,5.21857708 6.9902,5.2178 L6.9832,5.2178 Z" id="Shape"></path>
        </g>
    </g>
</svg>