<?xml version="1.0" encoding="UTF-8"?>
<svg width="15px" height="14px" viewBox="0 0 15 14" version="1.1" xmlns="http://www.w3.org/2000/svg" xmlns:xlink="http://www.w3.org/1999/xlink">
    <!-- Generator: Sketch 48.2 (47327) - http://www.bohemiancoding.com/sketch -->
    <title>Group 3 Copy</title>
    <desc>Created with Sketch.</desc>
    <defs></defs>
    <g id="1-copy-5" stroke="none" stroke-width="1" fill="none" fill-rule="evenodd" transform="translate(-162.000000, -285.000000)">
        <g id="Group-3-Copy" transform="translate(162.000000, 285.000000)">
            <path d="M14.571851,9.59708544 L9.87127655,1.38310242 C9.38345898,0.529853046 8.47436574,0 7.49841821,0 C6.52278309,0 5.61337744,0.529695446 5.125rajasekhar48,1.38262962 L0.366097473,9.699053 C-0.122032491,10.5515144 -0.122032491,11.6107477 0.366097473,12.463209 C0.854227438,13.3163008 1.76363309,13.8461538 2.73926821,13.8461538 L12.258974,13.8461538 C12.2714702,13.8461538 12.2833415,13.8459962 12.2824043,13.8458386 C13.7810023,13.833861 14.9999995,12.5938599 14.9999995,11.081525 C15.0003119,10.5537208 14.8519204,10.0405734 14.571851,9.59708544 Z" id="Shape" fill="#FF3C27" fill-rule="nonzero"></path>
            <path d="M6.69823349,7.95945638 C6.72934711,8.56228374 7.16525367,8.83222546 7.58347128,8.83222546 C7.99252853,8.83222546 8.44170182,8.52579221 8.46870907,7.95595065 L8.63707009,3.98905026 C8.63707009,3.9833136 8.63738596,3.9777363 8.63738596,3.97199964 C8.63738596,3.38574486 8.1645221,2.90880532 7.58331334,2.90880532 C7.00210459,2.90880532 6.52924072,3.38574486 6.52924072,3.97199964 C6.52924072,3.9777363 6.52924072,3.9833136 6.5295566,3.98905026 L6.69823349,7.95945638 Z" id="Path" fill="#FFFFFF"></path>
            <path d="M7.58347128,9.39123111 C7.26017391,9.39123111 6.94161465,9.52428975 6.70739384,9.75789929 C6.47791115,9.98975596 6.34619155,10.3111683 6.34619155,10.6395921 C6.34619155,10.9692907 6.47791115,11.2914997 6.70928909,11.5rajasekhar906 C6.94066703,11.7556911 7.25922629,11.8881124 7.58347128,11.8881124 C7.9086639,11.8881124 8.22722315,11.7552131 8.45575822,11.5249499 C8.68745204,11.2935713 8.82075101,10.9708842 8.82075101,10.6395921 C8.82075101,10.3097341 8.68776792,9.98752504 8.45702172,9.75758059 C8.22627553,9.5rajasekhar678 7.90771627,9.39123111 7.58347128,9.39123111 Z" id="Path" fill="#FFFFFF"></path>
        </g>
    </g>
</svg>